<svg width="20" height="20" viewBox="0 0 20 20" fill="none" xmlns="http://www.w3.org/2000/svg">
    <g clip-path="url(#clip0_75_1230)">
        <path d="M11.7688 10.0005L19.6335 2.1357C20.1222 1.64749 20.1222 0.855347 19.6335 0.367135C19.1449 -0.121493 18.3536 -0.121493 17.865 0.367135L10.0002 8.23189L2.13504 0.367135C1.64641 -0.121493 0.8551 -0.121493 0.366471 0.367135C-0.122157 0.855347 -0.122157 1.64749 0.366471 2.1357L8.23164 10.0005L0.366471 17.8652C-0.122157 18.3534 -0.122157 19.1456 0.366471 19.6338C0.610786 19.8777 0.930979 19.9998 1.25076 19.9998C1.57053 19.9998 1.89073 19.8777 2.13504 19.6334L10.0002 11.7686L17.865 19.6334C18.1093 19.8777 18.4295 19.9998 18.7492 19.9998C19.069 19.9998 19.3892 19.8777 19.6335 19.6334C20.1222 19.1451 20.1222 18.353 19.6335 17.8648L11.7688 10.0005Z" fill="#383838"/>
    </g>
    <defs>
        <clipPath id="clip0_75_1230">
            <rect width="20" height="20" fill="white"/>
        </clipPath>
    </defs>
</svg>
