<svg width="12" height="12" viewBox="0 0 12 12" fill="none" xmlns="http://www.w3.org/2000/svg">
    <g id="Iconly/Bold/Message">
        <g id="Message">
            <path id="Message_2" fill-rule="evenodd" clip-rule="evenodd" d="M8.46968 1.5C9.14018 1.5 9.78518 1.765 10.2597 2.2405C10.7347 2.715 11.0002 3.355 11.0002 4.025V7.975C11.0002 9.37 9.86518 10.5 8.46968 10.5H3.53018C2.13468 10.5 1.00018 9.37 1.00018 7.975V4.025C1.00018 2.63 2.12968 1.5 3.53018 1.5H8.46968ZM9.26518 4.77L9.30518 4.73C9.42468 4.585 9.42468 4.375 9.29968 4.23C9.23018 4.1555 9.13468 4.11 9.03518 4.1C8.93018 4.0945 8.83018 4.13 8.75468 4.2L6.50018 6C6.21018 6.2405 5.79468 6.2405 5.50018 6L3.25018 4.2C3.09468 4.085 2.87968 4.1 2.75018 4.235C2.61518 4.37 2.60018 4.585 2.71468 4.735L2.78018 4.8L5.05518 6.575C5.33518 6.795 5.67468 6.915 6.03018 6.915C6.38468 6.915 6.73018 6.795 7.00968 6.575L9.26518 4.77Z" fill="white"/>
        </g>
    </g>
</svg>
